<mxfile host="app.diagrams.net" modified="2024-08-08T14:43:46.785Z" agent="Mozilla/5.0 (Macintosh; Intel Mac OS X 10_15_7) AppleWebKit/537.36 (KHTML, like Gecko) Chrome/127.0.0.0 Safari/537.36" version="24.0.8" etag="_FjqqYAGsn77rTtbwsZk" type="github">
  <diagram name="Page-1" id="g8FdMzksWccBOkYOVJYr">
    <mxGraphModel>
      <root>
        <mxCell id="0" />
        <mxCell id="1" parent="0" />
      </root>
    </mxGraphModel>
  </diagram>
</mxfile>
